<svg id="Calque_1" data-name="Calque 1" xmlns="http://www.w3.org/2000/svg" viewBox="0 0 442.74 442.74"><defs><style>.cls-1{fill:none;stroke:#f1f1f1;stroke-miterlimit:10;stroke-width:22px;}.cls-2{fill:#f1f1f1;}</style></defs><rect class="cls-1" x="11" y="11" width="420.74" height="420.74"/><path class="cls-2" d="M488.63,1188.62l-21.15,64H440.31l69.15-203.55h31.71l69.46,203.55H582.55l-21.75-64Zm66.74-20.53-19.93-58.59c-4.53-13.29-7.55-25.37-10.57-37.15h-.61c-3,12.08-6.34,24.46-10.27,36.85l-19.93,58.89Z" transform="translate(-338.76 -938.86)"/><path class="cls-2" d="M662.28,1065.41c.3,9.06-6.35,16.3-16.91,16.3-9.37,0-16-7.24-16-16.3A16.19,16.19,0,0,1,646,1048.8C655.93,1048.8,662.28,1056,662.28,1065.41Zm-29.6,187.24V1106.48h26.58v146.17Z" transform="translate(-338.76 -938.86)"/></svg>