<svg id="Calque_1" data-name="Calque 1" xmlns="http://www.w3.org/2000/svg" viewBox="0 0 442.74 442.74"><defs><style>.cls-1{fill:none;stroke:#f1f1f1;stroke-miterlimit:10;stroke-width:22px;}.cls-2{fill:#f1f1f1;}</style></defs><rect class="cls-1" x="11" y="11" width="420.74" height="420.74"/><path class="cls-2" d="M109.4,112.65a305.26,305.26,0,0,1,50.43-3.92c26,0,45,6,57.08,16.91,11.18,9.66,17.82,24.46,17.82,42.58,0,18.42-5.44,32.92-15.7,43.49-13.9,14.8-36.55,22.35-62.22,22.35-7.85,0-15.1-.3-21.14-1.81v81.54H109.4Zm26.27,98.15c5.74,1.51,13,2.12,21.75,2.12,31.71,0,51-15.4,51-43.49,0-26.88-19-39.86-48-39.86-11.48,0-20.24.9-24.77,2.11Z"/><path class="cls-2" d="M252.85,286.61c7.85,5.13,21.75,10.57,35,10.57,19.33,0,28.39-9.67,28.39-21.75,0-12.68-7.55-19.63-27.18-26.87-26.27-9.37-38.65-23.86-38.65-41.38,0-23.56,19-42.88,50.43-42.88,14.8,0,27.78,4.22,35.94,9.06l-6.65,19.32a56.87,56.87,0,0,0-29.89-8.45c-15.71,0-24.47,9.06-24.47,19.93,0,12.08,8.76,17.52,27.79,24.76,25.37,9.67,38.35,22.35,38.35,44.1,0,25.67-19.93,43.79-54.66,43.79-16,0-30.8-3.93-41.07-10Z"/></svg>