<svg id="Calque_1" data-name="Calque 1" xmlns="http://www.w3.org/2000/svg" viewBox="0 0 442.74 442.74"><defs><style>.cls-1{fill:none;stroke:#f1f1f1;stroke-miterlimit:10;stroke-width:22px;}.cls-2{fill:#f1f1f1;}</style></defs><rect class="cls-1" x="11" y="11" width="420.74" height="420.74"/><path class="cls-2" d="M532.93,1252.65l-26-45c-10.57-17.21-17.21-28.39-23.55-40.17h-.61c-5.74,11.78-11.47,22.65-22,40.47l-24.47,44.7h-30.2l62.22-103L408.5,1049.1H439l26.88,47.71c7.55,13.29,13.29,23.56,18.72,34.43h.91c5.74-12.08,10.87-21.44,18.42-34.43l27.79-47.71h30.2L500,1148.15l63.42,104.5Z" transform="translate(-338.76 -938.86)"/><path class="cls-2" d="M709.9,1038.23V1214.9c0,13,.3,27.78,1.21,37.75H687.25L686,1227.28h-.6c-8.15,16.31-26,28.69-49.83,28.69-35.34,0-62.52-29.9-62.52-74.29-.3-48.63,29.9-78.52,65.54-78.52,22.35,0,37.45,10.57,44.09,22.34h.61v-87.27ZM683.33,1166a47.19,47.19,0,0,0-1.21-11.17c-3.93-16.91-18.42-30.81-38.36-30.81-27.48,0-43.79,24.16-43.79,56.48,0,29.59,14.5,54.06,43.19,54.06,17.82,0,34.13-11.78,39-31.71a46.5,46.5,0,0,0,1.21-11.48Z" transform="translate(-338.76 -938.86)"/></svg>